{"buffers":[{"uri":"flower-pointcloud-MeshOpt_unlit.bin","byteLength":2868556},{"byteLength":5915016,"extensions":{"EXT_meshopt_compression":{"fallback":true}}}],"asset":{"version":"2.0","generator":"gltfpack 0.20","extras":{"author":"Moshe Caine (https://sketchfab.com/mosheca)","license":"CC-BY-4.0 (http://creativecommons.org/licenses/by/4.0/)","source":"https://sketchfab.com/3d-models/flower-point-cloud-photogrammetry-13a409d10f154d5dbfd009fe75d52222","title":"Flower Point Cloud Photogrammetry"}},"extensionsUsed":["KHR_mesh_quantization","EXT_meshopt_compression","KHR_materials_unlit"],"extensionsRequired":["KHR_mesh_quantization","EXT_meshopt_compression"],"bufferViews":[{"buffer":1,"byteOffset":0,"byteLength":1971672,"byteStride":4,"target":34962,"extensions":{"EXT_meshopt_compression":{"buffer":0,"byteOffset":0,"byteLength":1204979,"byteStride":4,"mode":"ATTRIBUTES","count":492918}}},{"buffer":1,"byteOffset":1971672,"byteLength":3943344,"byteStride":8,"target":34962,"extensions":{"EXT_meshopt_compression":{"buffer":0,"byteOffset":1204980,"byteLength":1663575,"byteStride":8,"mode":"ATTRIBUTES","count":492918}}}],"accessors":[{"bufferView":0,"byteOffset":0,"componentType":5121,"count":492918,"type":"VEC4","normalized":true},{"bufferView":1,"byteOffset":0,"componentType":5123,"count":492918,"type":"VEC3","min":[0,0,0],"max":[14724,13113,16383]}],"materials":[{"name":"Scene_-_Root","extensions":{"KHR_materials_unlit":{}}}],"meshes":[{"primitives":[{"attributes":{"COLOR_0":0,"POSITION":1},"mode":0,"material":0}]}],"nodes":[{"mesh":0,"translation":[-2.4438467,1.00949526,-5.12910843],"scale":[0.000535229803,0.000535229803,0.000535229803]}],"scenes":[{"name":"Sketchfab_Scene","nodes":[0]}],"scene":0}